<svg version="1.1" id="Layer_1" xmlns="http://www.w3.org/2000/svg" xmlns:xlink="http://www.w3.org/1999/xlink" x="0px" y="0px"
	 width="100%" viewBox="0 0 272 176" enable-background="new 0 0 272 176" xml:space="preserve">
<path fill="#000000" opacity="1.000000" stroke="none" 
	d="
M127.999878,159.392212 
	C103.008644,159.388092 78.517410,159.391037 54.026207,159.367599 
	C51.265640,159.364960 48.016247,160.055298 47.227512,156.095184 
	C46.534527,152.615845 47.410225,149.850677 50.312912,147.271072 
	C56.773315,141.529739 63.732582,140.193390 71.708885,143.300781 
	C74.296783,144.308975 75.462456,142.882446 75.759071,140.491547 
	C76.414139,135.211273 77.427094,129.933868 77.548561,124.638191 
	C77.753548,115.702103 79.135750,107.073669 82.687462,98.874512 
	C84.125275,95.555305 83.827164,93.449692 80.288048,91.650368 
	C75.549553,89.241226 71.120132,86.227325 66.538544,83.505859 
	C48.233734,72.632812 35.017029,57.069641 25.204023,38.436901 
	C23.781445,35.735737 21.441294,32.515888 23.441492,29.584026 
	C25.402451,26.709681 29.002502,28.301607 31.863832,28.680431 
	C51.659550,31.301283 68.394569,40.515644 83.595848,52.956413 
	C90.323395,58.462257 96.388611,64.652588 101.863220,71.382576 
	C104.928635,75.150932 107.976105,76.099945 112.679825,74.000336 
	C129.539291,66.474716 146.594193,66.870430 163.588043,73.788635 
	C169.845947,76.336227 171.081741,75.995926 175.810852,70.349640 
	C187.728668,56.120472 201.758591,44.568047 218.590714,36.541885 
	C227.996902,32.056683 237.821945,29.146563 248.222961,28.233713 
	C253.573608,27.764112 255.106445,29.473183 253.094025,34.633408 
	C248.736130,45.807739 241.476608,55.169182 233.703003,64.128410 
	C223.931351,75.390388 211.472351,83.095001 198.644287,90.289520 
	C192.214081,93.895844 192.277802,93.902222 194.701172,100.865685 
	C197.791870,109.746597 198.779785,118.993057 199.327805,128.314209 
	C199.562042,132.298447 199.960892,136.272827 200.268066,140.253006 
	C200.506989,143.348511 201.872040,144.321381 204.928970,143.163681 
	C213.673203,139.852173 222.638962,142.217361 227.920746,149.213531 
	C229.782516,151.679626 229.710709,154.563965 228.611237,157.312134 
	C227.561386,159.936279 225.055756,159.367477 222.965637,159.369354 
	C191.477066,159.397629 159.988464,159.390381 127.999878,159.392212 
M164.813599,124.631416 
	C166.303848,126.583778 167.993515,128.264420 170.663025,126.902374 
	C172.744217,125.840492 174.084137,124.066170 173.314987,121.608231 
	C172.664017,119.527893 171.003845,118.176453 168.779999,118.423615 
	C165.614532,118.775414 164.191315,120.789383 164.813599,124.631416 
M110.778801,123.287872 
	C110.624550,120.404808 109.271751,118.520142 106.250671,118.458778 
	C104.466827,118.422539 103.037437,119.466553 102.461250,121.184044 
	C101.748589,123.308319 102.407394,125.231529 104.303764,126.382545 
	C107.303078,128.203003 109.271332,126.729492 110.778801,123.287872 
z"/>
</svg>